<svg width="75" height="53" viewBox="0 0 75 53" fill="none" xmlns="http://www.w3.org/2000/svg">
<path fill-rule="evenodd" clip-rule="evenodd" d="M0 35.3335V39.0742C0 44.5971 4.47715 49.0742 10 49.0742H64.5928C70.1156 49.0742 74.5928 44.5971 74.5928 39.0742V35.3335H0Z" fill="#CC4343"/>
<path fill-rule="evenodd" clip-rule="evenodd" d="M0 17.6666V21.4076C0 26.9304 4.47715 31.4076 10 31.4076H64.5928C70.1156 31.4076 74.5928 26.9304 74.5928 21.4076V17.6666H0Z" fill="#DD593F"/>
<path fill-rule="evenodd" clip-rule="evenodd" d="M0 0.00012207V3.74085C0 9.2637 4.47715 13.7409 10 13.7409H64.5928C70.1156 13.7409 74.5928 9.26369 74.5928 3.74084V0.00012207H0Z" fill="#ED6E3A"/>
<rect x="8.8335" y="48.0928" width="55.9446" height="4.90742" fill="#CC4343"/>
</svg>
