<svg width="147" height="53" viewBox="0 0 147 53" fill="none" xmlns="http://www.w3.org/2000/svg">
<path d="M16.3653 8.74427V0.000244141H24.8711V23.8166H16.3653V15.4469H9.25437V23.8166H0.748515V0.000244141H9.25437V8.74427H16.3653Z" fill="#292929"/>
<path d="M39.9337 15.3788V4.66145H48.0653V23.8166H39.9337V21.3329C38.5727 23.2042 36.5313 24.327 34.2518 24.327C29.6246 24.327 27.0048 21.5371 27.0048 16.4676V4.66145H35.1364V14.5963C35.1364 16.4676 35.8849 17.2501 37.3139 17.2501C38.5047 17.2501 39.4233 16.4336 39.9337 15.3788Z" fill="#292929"/>
<path d="M63.9316 4.1511C68.5588 4.1511 71.1786 6.94102 71.1786 12.0105V23.8166H63.047V13.8818C63.047 12.0105 62.2985 11.228 60.8695 11.228C59.6787 11.228 58.7601 12.0445 58.2497 13.0993V23.8166H50.1181V4.66145H58.2497V7.14517C59.6106 5.27388 61.6521 4.1511 63.9316 4.1511Z" fill="#292929"/>
<path d="M81.3971 18.509L83.6766 18.475C91.0257 18.3729 93.5434 20.3122 93.5434 23.8507C93.5434 27.8314 89.5967 30.111 81.9755 30.111C75.7152 30.111 72.7551 28.5799 72.7551 25.3137C72.7551 23.8507 73.7418 22.7619 74.8646 22.0474C73.6057 21.3329 73.0613 20.1761 73.0613 18.9853C73.0613 17.4543 74.1161 16.2975 75.3409 15.549C73.8098 14.3922 73.0273 12.759 73.0273 10.7516C73.0273 6.70286 76.5998 4.1511 82.5539 4.1511C84.187 4.1511 85.582 4.32122 86.7047 4.79755L92.0124 3.47063L93.2372 7.96173L91.0938 8.09782C91.7402 8.77829 92.2505 9.73095 92.2505 10.7516C92.2505 14.8345 88.6441 17.4202 82.6219 17.4202C81.7713 17.4202 80.9888 17.3862 80.2743 17.2841C80.1382 17.4883 80.0702 17.6924 80.0702 17.9306C80.0702 18.475 80.6145 18.509 81.3971 18.509ZM82.5879 9.0845C81.4991 9.0845 80.8527 9.69692 80.8527 10.7176C80.8527 11.8404 81.4991 12.5209 82.5879 12.5209C83.6766 12.5209 84.3571 11.8404 84.3571 10.7176C84.3571 9.69692 83.6766 9.0845 82.5879 9.0845ZM82.5879 24.9394C84.9695 24.9394 85.7861 24.6672 85.7861 23.6806C85.7861 23.1362 84.9355 22.898 83.0642 22.898H80.3423C80.1382 23.1702 80.0361 23.4424 80.0361 23.6806C80.0361 24.8033 81.3631 24.9394 82.5879 24.9394Z" fill="#292929"/>
<path d="M107.573 4.18513C108.287 4.18513 109.104 4.2872 109.954 4.52536L109.138 11.4321L106.28 11.3981C104.136 11.3981 102.707 13.3374 102.707 16.0933V23.8166H94.5758V4.66145H102.707V7.24724C103.66 5.34192 105.225 4.18513 107.573 4.18513Z" fill="#292929"/>
<path d="M121.387 15.1407L124.585 4.66145H133.193L125.402 23.8166L123.088 29.6347H114.821L117.338 23.7486L109.615 4.66145H118.189L121.387 15.1407Z" fill="#292929"/>
<path d="M20.4821 28.7075H29.022L30.3829 52.5239H21.8771L21.1626 41.8065L16.9096 52.5579H13.6094L9.22035 41.8065L8.50586 52.5239H0L1.36094 28.7075H9.93484L15.1744 40.2415L20.4821 28.7075Z" fill="#292929"/>
<path d="M40.7723 32.8584C48.3595 32.8584 51.3536 36.4989 51.3536 41.9086V52.5239H43.256V50.2443C42.1673 51.9795 40.1939 53.0002 37.7442 53.0002C33.7975 53.0002 31.0076 50.6186 31.0076 46.91C31.0076 43.1675 33.7975 41.092 39.0711 41.092C40.2279 41.092 41.9631 41.1601 43.222 41.2281V41.1941C43.222 39.7992 42.1673 38.9826 39.7856 38.9826C37.7442 38.9826 35.8729 39.2548 34.1037 39.7991L33.5253 33.777C35.7368 33.1986 38.0504 32.8584 40.7723 32.8584ZM40.5682 47.3864C41.9631 47.3864 43.0519 46.5698 43.222 44.8346V44.2222C42.6436 44.1882 42.0312 44.1882 41.1806 44.1882C39.6495 44.1882 38.7989 44.8346 38.7989 45.8893C38.7989 46.774 39.5134 47.3864 40.5682 47.3864Z" fill="#292929"/>
<path d="M62.3937 53.0002C57.3922 53.0002 54.5002 50.4485 54.5002 45.5151V39.4249H52.4248V36.4989L55.7931 32.9264L59.5357 28.9117H62.5978V33.3687H67.9395V39.4249H62.5978V44.6305C62.5978 45.6512 63.1422 46.2296 64.0948 46.2296C64.9794 46.2296 65.9321 46.0595 67.0889 45.6172L68.5519 51.5372C66.5785 52.5579 64.2649 53.0002 62.3937 53.0002Z" fill="#292929"/>
<path d="M88.6709 44.8006H76.2183C76.7627 46.5018 78.4979 47.0121 80.4713 47.0121C82.0363 47.0121 83.8056 46.6038 85.4727 45.8553L87.0718 50.9588C84.5881 52.3538 82.0363 53.0002 79.5186 53.0002C73.4284 53.0002 68.461 49.0876 68.461 42.8953C68.461 37.1113 72.85 32.8584 79.3485 32.8584C85.3706 32.8584 89.3854 36.4308 89.3854 41.2281C89.3854 42.419 89.1472 43.6098 88.6709 44.8006ZM79.0083 38.7104C77.205 38.7104 76.4225 39.6971 76.1843 41.5003L81.6961 41.4323C81.594 39.595 80.7434 38.7104 79.0083 38.7104Z" fill="#292929"/>
<path d="M98.3777 53.0002C94.6691 53.0002 92.4576 52.5579 89.9739 51.5032L90.8585 45.7533C93.1721 46.876 96.0981 47.4544 98.9561 47.4544C99.7386 47.4544 100.453 47.2503 100.419 46.5698C100.419 45.9914 99.7727 45.7192 97.6292 45.413C92.0834 44.6645 89.8038 43.0994 89.8038 39.527C89.8038 35.1379 93.8866 32.8584 98.9901 32.8584C101.882 32.8584 104.468 33.5388 106.679 34.2874L105.829 39.8672C103.753 39.1867 100.759 38.4382 98.6158 38.4382C97.4931 38.4382 97.2209 38.8465 97.2209 39.2208C97.2209 39.6631 97.5271 39.9352 99.7386 40.2415C105.182 40.9559 107.87 42.6231 107.87 46.2976C107.87 50.6867 103.753 53.0002 98.3777 53.0002Z" fill="#292929"/>
<path d="M140.823 4.67834C143.919 4.67834 146.403 7.16206 146.403 10.2242C146.403 13.3203 143.919 15.804 140.823 15.804C137.727 15.804 135.243 13.3203 135.243 10.2242C135.243 7.16206 137.727 4.67834 140.823 4.67834ZM140.823 14.7833C143.341 14.7833 145.382 12.7419 145.382 10.2242C145.382 7.74045 143.341 5.69905 140.823 5.69905C138.339 5.69905 136.298 7.74045 136.298 10.2242C136.298 12.7419 138.339 14.7833 140.823 14.7833ZM142.694 11.0748L144.055 12.9801H141.504L140.721 11.415H140.347V12.9801H138.237V7.05998H141.027C142.729 7.05998 143.851 7.94459 143.851 9.23748C143.851 10.1221 143.409 10.7345 142.694 11.0748ZM140.993 8.65909H140.347V9.91795H140.993C141.436 9.91795 141.742 9.67979 141.742 9.27151C141.742 8.93127 141.436 8.65909 140.993 8.65909Z" fill="#292929"/>
</svg>
