<svg width="70" height="26" viewBox="0 0 70 26" fill="none" xmlns="http://www.w3.org/2000/svg">
<g id="Group 227">
<g id="Hungry Mates">
<path d="M7.82476 4.1808V0H11.8917V11.3874H7.82476V7.38554H4.42481V11.3874H0.357889V0H4.42481V4.1808H7.82476Z" fill="#F9F9F9"/>
<path d="M19.0936 7.353V2.22867H22.9816V11.3874H19.0936V10.1998C18.4429 11.0946 17.4668 11.6314 16.3769 11.6314C14.1645 11.6314 12.9118 10.2975 12.9118 7.87357V2.22867H16.7998V6.97884C16.7998 7.87357 17.1577 8.24772 17.841 8.24772C18.4103 8.24772 18.8496 7.8573 19.0936 7.353Z" fill="#F9F9F9"/>
<path d="M30.5678 1.98466C32.7802 1.98466 34.0328 3.31861 34.0328 5.7425V11.3874H30.1448V6.63722C30.1448 5.7425 29.7869 5.36834 29.1037 5.36834C28.5343 5.36834 28.0951 5.75877 27.8511 6.26306V11.3874H23.9631V2.22867H27.8511V3.41622C28.5018 2.52149 29.4778 1.98466 30.5678 1.98466Z" fill="#F9F9F9"/>
<path d="M38.9186 8.84963L40.0085 8.83336C43.5223 8.78456 44.7261 9.71181 44.7261 11.4037C44.7261 13.307 42.8391 14.3969 39.1951 14.3969C36.2019 14.3969 34.7866 13.6649 34.7866 12.1032C34.7866 11.4037 35.2583 10.8831 35.7952 10.5415C35.1933 10.1998 34.933 9.64674 34.933 9.07738C34.933 8.34533 35.4373 7.79223 36.0229 7.43434C35.2909 6.88124 34.9167 6.10039 34.9167 5.14059C34.9167 3.20474 36.6248 1.98466 39.4717 1.98466C40.2525 1.98466 40.9195 2.066 41.4563 2.29375L43.9941 1.6593L44.5797 3.80664L43.5549 3.87171C43.8639 4.19707 44.108 4.65256 44.108 5.14059C44.108 7.09272 42.3836 8.32906 39.5042 8.32906C39.0975 8.32906 38.7234 8.31279 38.3817 8.26399C38.3167 8.3616 38.2841 8.4592 38.2841 8.57308C38.2841 8.83336 38.5444 8.84963 38.9186 8.84963ZM39.4879 4.34348C38.9674 4.34348 38.6583 4.63629 38.6583 5.12432C38.6583 5.66116 38.9674 5.98651 39.4879 5.98651C40.0085 5.98651 40.3339 5.66116 40.3339 5.12432C40.3339 4.63629 40.0085 4.34348 39.4879 4.34348ZM39.4879 11.9242C40.6267 11.9242 41.0171 11.7941 41.0171 11.3223C41.0171 11.062 40.6104 10.9482 39.7157 10.9482H38.4143C38.3167 11.0783 38.2679 11.2084 38.2679 11.3223C38.2679 11.8592 38.9023 11.9242 39.4879 11.9242Z" fill="#F9F9F9"/>
<path d="M51.434 2.00093C51.7756 2.00093 52.1661 2.04973 52.5728 2.1636L52.1823 5.46595L50.8158 5.44968C49.791 5.44968 49.1077 6.37694 49.1077 7.69462V11.3874H45.2198V2.22867H49.1077V3.46502C49.5632 2.55403 50.3115 2.00093 51.434 2.00093Z" fill="#F9F9F9"/>
<path d="M58.0391 7.23913L59.5682 2.22867H63.684L59.9587 11.3874L58.8525 14.1692H54.8994L56.1032 11.3549L52.4105 2.22867H56.5099L58.0391 7.23913Z" fill="#F9F9F9"/>
<path d="M9.79316 13.7259H13.8763L14.5271 25.1133H10.4601L10.1185 19.9889L8.08505 25.1295H6.50708L4.40855 19.9889L4.06692 25.1133H0L0.650708 13.7259H4.75017L7.25539 19.2406L9.79316 13.7259Z" fill="#F9F9F9"/>
<path d="M19.4945 15.7105C23.1222 15.7105 24.5538 17.4512 24.5538 20.0377V25.1133H20.6821V24.0233C20.1615 24.853 19.218 25.341 18.0467 25.341C16.1597 25.341 14.8257 24.2023 14.8257 22.4291C14.8257 20.6396 16.1597 19.6473 18.6812 19.6473C19.2343 19.6473 20.0639 19.6798 20.6658 19.7124V19.6961C20.6658 19.0291 20.1615 18.6387 19.0228 18.6387C18.0467 18.6387 17.152 18.7689 16.3061 19.0291L16.0295 16.1498C17.0869 15.8732 18.1931 15.7105 19.4945 15.7105ZM19.3969 22.6568C20.0639 22.6568 20.5845 22.2664 20.6658 21.4368V21.1439C20.3893 21.1277 20.0965 21.1277 19.6898 21.1277C18.9577 21.1277 18.551 21.4368 18.551 21.9411C18.551 22.364 18.8926 22.6568 19.3969 22.6568Z" fill="#F9F9F9"/>
<path d="M29.8324 25.341C27.4411 25.341 26.0583 24.1209 26.0583 21.7621V18.8502H25.066V17.4512L26.6765 15.7431L28.4659 13.8235H29.93V15.9545H32.4841V18.8502H29.93V21.3392C29.93 21.8272 30.1903 22.1037 30.6458 22.1037C31.0688 22.1037 31.5243 22.0224 32.0774 21.8109L32.7769 24.6415C31.8333 25.1295 30.7271 25.341 29.8324 25.341Z" fill="#F9F9F9"/>
<path d="M42.3964 21.4205H36.4424C36.7027 22.2339 37.5324 22.4779 38.4759 22.4779C39.2242 22.4779 40.0701 22.2827 40.8673 21.9248L41.6318 24.3649C40.4443 25.0319 39.2242 25.341 38.0204 25.341C35.1085 25.341 32.7334 23.4702 32.7334 20.5095C32.7334 17.744 34.8319 15.7105 37.9391 15.7105C40.8185 15.7105 42.738 17.4186 42.738 19.7124C42.738 20.2818 42.6242 20.8511 42.3964 21.4205ZM37.7764 18.5086C36.9142 18.5086 36.54 18.9803 36.4262 19.8425L39.0615 19.81C39.0127 18.9315 38.606 18.5086 37.7764 18.5086Z" fill="#F9F9F9"/>
<path d="M47.0375 25.341C45.2644 25.341 44.207 25.1295 43.0194 24.6252L43.4424 21.876C44.5486 22.4128 45.9476 22.6894 47.3141 22.6894C47.6883 22.6894 48.0299 22.5918 48.0136 22.2664C48.0136 21.9899 47.7045 21.8597 46.6797 21.7133C44.028 21.3554 42.9381 20.6071 42.9381 18.899C42.9381 16.8005 44.8902 15.7105 47.3304 15.7105C48.7131 15.7105 49.9495 16.0359 51.0069 16.3938L50.6002 19.0617C49.6078 18.7363 48.1763 18.3784 47.1514 18.3784C46.6146 18.3784 46.4844 18.5736 46.4844 18.7526C46.4844 18.9641 46.6309 19.0942 47.6883 19.2406C50.2911 19.5822 51.5762 20.3794 51.5762 22.1363C51.5762 24.2348 49.6078 25.341 47.0375 25.341Z" fill="#F9F9F9"/>
</g>
<path id="&#194;&#174;" d="M67.3321 2.23682C68.8125 2.23682 70 3.42436 70 4.88845C70 6.36881 68.8125 7.55635 67.3321 7.55635C65.8518 7.55635 64.6642 6.36881 64.6642 4.88845C64.6642 3.42436 65.8518 2.23682 67.3321 2.23682ZM67.3321 7.06832C68.5359 7.06832 69.512 6.09226 69.512 4.88845C69.512 3.70091 68.5359 2.72485 67.3321 2.72485C66.1446 2.72485 65.1685 3.70091 65.1685 4.88845C65.1685 6.09226 66.1446 7.06832 67.3321 7.06832ZM68.2269 5.29514L68.8776 6.20613H67.6575L67.2833 5.45782H67.1044V6.20613H66.0958V3.37556H67.4297C68.2431 3.37556 68.78 3.79852 68.78 4.41669C68.78 4.83965 68.5685 5.13247 68.2269 5.29514ZM67.4135 4.14014H67.1044V4.74204H67.4135C67.625 4.74204 67.7714 4.62817 67.7714 4.43296C67.7714 4.27028 67.625 4.14014 67.4135 4.14014Z" fill="#F9F9F9"/>
</g>
</svg>
